<?xml version="1.0" encoding="UTF-8" standalone="no"?>
<!-- Created with Inkscape (http://www.inkscape.org/) -->

<svg
   xmlns:dc="http://purl.org/dc/elements/1.1/"
   xmlns:cc="http://creativecommons.org/ns#"
   xmlns:rdf="http://www.w3.org/1999/02/22-rdf-syntax-ns#"
   xmlns:svg="http://www.w3.org/2000/svg"
   xmlns="http://www.w3.org/2000/svg"
   xmlns:sodipodi="http://sodipodi.sourceforge.net/DTD/sodipodi-0.dtd"
   xmlns:inkscape="http://www.inkscape.org/namespaces/inkscape"
   width="210mm"
   height="297mm"
   viewBox="0 0 210 297"
   version="1.1"
   id="svg8"
   inkscape:version="0.92.4 (5da689c313, 2019-01-14)"
   sodipodi:docname="icon.svg">
  <defs
     id="defs2" />
  <sodipodi:namedview
     id="base"
     pagecolor="#ffffff"
     bordercolor="#666666"
     borderopacity="1.0"
     inkscape:pageopacity="0.0"
     inkscape:pageshadow="2"
     inkscape:zoom="0.7"
     inkscape:cx="639.33531"
     inkscape:cy="534.71345"
     inkscape:document-units="mm"
     inkscape:current-layer="layer1"
     showgrid="false"
     inkscape:window-width="1920"
     inkscape:window-height="1017"
     inkscape:window-x="-8"
     inkscape:window-y="-8"
     inkscape:window-maximized="1" />
  <metadata
     id="metadata5">
    <rdf:RDF>
      <cc:Work
         rdf:about="">
        <dc:format>image/svg+xml</dc:format>
        <dc:type
           rdf:resource="http://purl.org/dc/dcmitype/StillImage" />
        <dc:title></dc:title>
      </cc:Work>
    </rdf:RDF>
  </metadata>
  <g
     inkscape:label="Layer 1"
     inkscape:groupmode="layer"
     id="layer1">
    <g
       id="g3724"
       transform="translate(-66.52381,-4.5357176)">
      <path
         style="fill:#202020;stroke-width:0.26458335"
         d="m 122.88005,100.01762 c -2.28639,-0.271438 -4.74945,-1.385368 -6.14168,-2.777608 -0.56902,-0.56901 -1.61289,-1.97975 -2.31972,-3.13498 -0.70683,-1.15523 -1.70875,-2.54976 -2.22647,-3.09896 -0.93147,-0.98811 -0.95733,-0.99674 -2.47248,-0.82532 -1.74072,0.19694 -3.72354,-0.38489 -4.17287,-1.22448 -0.42577,-0.79555 -0.30048,-1.80753 0.29786,-2.40587 0.82755,-0.82755 2.9518,-0.59783 4.73768,0.51233 l 1.34629,0.8369 0.98574,-0.50289 c 3.07623,-1.56937 5.48515,-1.64635 8.91269,-0.28478 3.16103,1.25569 5.83132,1.00724 7.40317,-0.68881 0.36369,-0.39243 0.66126,-0.99378 0.66126,-1.33633 0,-1.497499 1.43418,-0.226769 1.85627,1.64472 0.32589,1.44492 -0.12912,2.39045 -1.55318,3.2276 -1.06213,0.62438 -1.51673,0.72256 -3.3458,0.72256 -1.70883,0 -2.46821,-0.14295 -3.94112,-0.74191 -1.02952,-0.41864 -2.80588,-0.86195 -4.0769,-1.01742 -2.22993,-0.27277 -4.94809,-0.12152 -5.20209,0.28945 -0.0724,0.11709 0.51543,1.21008 1.30621,2.42888 3.14879,4.85313 3.3894,5.06021 6.42755,5.53159 1.37589,0.21348 2.42221,0.21826 3.71932,0.017 3.97546,-0.61681 5.68102,-1.69851 8.32127,-5.27754 1.03583,-1.40413 2.34647,-3.10841 2.91254,-3.78727 l 1.0292,-1.2343 -1.01466,-1.02753 c -0.55806,-0.56513 -1.53118,-1.795639 -2.16249,-2.734439 -1.63879,-2.43701 -2.1621,-2.76527 -4.40841,-2.76527 -1.58212,0 -2.00341,0.10452 -2.89021,0.71708 -0.57096,0.39439 -1.19029,1.079 -1.37629,1.52135 -0.75634,1.7988 -1.63157,0.62721 -2.35487,-3.15225 -0.54149,-2.82945 -1.01464,-3.98183 -1.63337,-3.97811 -0.26209,0.002 -1.05649,0.17882 -1.76535,0.39387 -2.57959,0.78259 -5.19346,-0.69503 -5.19346,-2.93586 0,-2.58524 3.15744,-3.61634 5.4636,-1.7842 1.87622,1.49057 1.74696,1.44803 2.95635,0.97297 0.98675,-0.38761 1.32535,-0.39712 2.98548,-0.0839 1.72451,0.32539 1.94549,0.31401 2.79605,-0.14405 1.94521,-1.04757 2.64944,-3.71852 4.88157,-18.51442 1.06628,-7.067921 1.16145,-12.54278 0.27504,-15.822212 -0.80743,-2.987216 -2.26388,-5.578494 -4.27655,-7.60868 -4.40611,-4.444472 -9.01992,-5.909433 -15.49249,-4.919126 -5.55455,0.84985 -10.4293,3.209172 -14.403382,6.971079 -3.124589,2.957766 -5.178307,5.951245 -8.002055,11.663713 -2.401744,4.858756 -3.548897,6.475126 -5.625837,7.926956 -0.436296,0.30498 -0.713084,0.6347 -0.615084,0.7327 0.098,0.098 1.228876,0.42368 2.513057,0.72373 1.794175,0.41922 3.294404,0.55145 6.478343,0.57099 2.278907,0.014 4.243438,-0.0764 4.365625,-0.2008 0.231022,-0.23526 -1.903144,-2.26991 -2.90735,-2.77178 -0.316062,-0.15796 -1.080674,-0.41582 -1.699137,-0.57302 -1.792042,-0.4555 -1.570226,-1.09964 1.335173,-3.877216 1.618311,-1.547116 3.134229,-2.711725 4.431767,-3.404722 1.94887,-1.040861 2.00488,-1.05309 4.75025,-1.037181 4.12026,0.02388 5.88792,0.835532 9.93834,4.563368 2.1753,2.002061 2.15853,2.075801 -0.83858,3.686741 -2.74601,1.47596 -5.74934,2.63342 -8.7973,3.39041 -1.36162,0.33817 -2.53719,0.67637 -2.61238,0.75156 -0.30387,0.30387 0.20103,0.89738 1.16114,1.36491 2.0244,0.98579 6.09275,0.2959 8.21763,-1.39351 1.80166,-1.43243 1.93148,-1.5007 2.24933,-1.18286 0.22032,0.22033 -0.0404,0.6329 -1.0046,1.58985 -1.79494,1.78141 -3.75823,2.524 -6.72608,2.54406 -2.34447,0.0159 -3.19917,-0.30285 -5.29167,-1.97318 -0.61558,-0.49138 -0.81744,-0.5079 -2.910416,-0.23818 -3.33107,0.42927 -9.618181,-0.24877 -13.626042,-1.46952 -2.10442,-0.64099 -2.225928,-0.78292 -1.411842,-1.6492 1.216903,-1.29493 2.986577,-4.29726 5.634582,-9.559303 1.747448,-3.472481 3.195561,-5.940121 4.50959,-7.684507 4.423151,-5.871782 9.878058,-9.664852 16.488968,-11.465607 2.51821,-0.685941 9.08211,-0.826067 11.42349,-0.243868 7.13117,1.773208 13.60104,8.424 15.59005,16.026006 1.80976,6.916926 -1.38722,27.918389 -5.01155,32.921639 -0.43,0.59359 -1.28796,1.33748 -1.90658,1.65308 -1.0592,0.54036 -1.24237,0.55471 -3.14221,0.24618 -1.76769,-0.28707 -2.12022,-0.27448 -2.84754,0.10163 -0.96906,0.50112 -0.99327,0.64092 -0.33719,1.94756 0.2711,0.5399 0.70367,1.63649 0.96127,2.43685 0.25761,0.80037 0.52206,1.54932 0.58767,1.66435 0.0656,0.11503 0.56998,-0.19802 1.12082,-0.69567 1.48285,-1.33967 2.59378,-1.63131 4.30902,-1.1312 2.21257,0.64511 3.71223,1.77062 5.39147,4.04634 2.62244,3.553959 2.58385,3.524519 4.61955,3.524519 1.95242,0 3.12779,0.58679 2.81389,1.4048 -0.0905,0.23589 -1.17048,1.07781 -2.39991,1.87092 -2.25457,1.45445 -2.64619,1.88017 -5.54782,6.03082 -0.67899,0.97126 -1.68141,2.13618 -2.22762,2.58871 -2.56121,2.12198 -6.2983,3.069608 -10.25353,2.600038 z M 119.0811,74.668403 c 1.55099,-0.4308 1.77485,-0.91922 0.86273,-1.88227 -0.42237,-0.44594 -1.03138,-0.91325 -1.35335,-1.03845 -1.8915,-0.73553 -3.66025,2.00027 -1.85617,2.87099 0.76156,0.36756 1.17131,0.37624 2.34679,0.0497 z m -15.22228,-22.33684 c 2.53227,-0.67843 9.22271,-3.39619 9.88107,-4.01385 0.44836,-0.42063 0.45769,-0.41166 -2.57373,-2.474694 -2.71663,-1.848811 -3.95058,-2.138056 -6.72777,-1.577044 -1.70543,0.344511 -6.346711,2.596319 -7.619793,3.696898 l -0.926042,0.80056 1.041066,0.8508 c 0.572585,0.46794 1.675174,1.41635 2.450197,2.10757 0.775022,0.69123 1.556702,1.25647 1.737062,1.25611 0.18036,-2.7e-4 1.41243,-0.29123 2.73794,-0.64635 z"
         id="path3726"
         inkscape:connector-curvature="0" />
    </g>
    <path
       style="fill:#000000;stroke-width:0.08466667"
       d="m 102.48446,81.695022 c -2.29341,-0.42324 -4.425026,-2.19408 -5.334086,-4.43129 -0.54636,-1.3446 -0.50791,0.054 -0.50791,-18.47339 v -16.80633 l 0.1884,-0.68322 c 0.74075,-2.68625 2.63181,-4.57618 5.314936,-5.31176 l 0.67733,-0.18569 h 16.80633 16.80634 l 0.67733,0.18569 c 2.97159,0.81467 5.07413,3.1769 5.45996,6.13436 0.0647,0.4956 0.0843,5.636 0.0658,17.17495 -0.0291,18.08987 0.0126,16.61595 -0.50782,17.94934 -0.87066,2.23076 -3.00127,3.99221 -5.3852,4.45214 -0.87932,0.16964 -33.34077,0.1651 -34.26139,-0.005 z m 21.00839,-8.37708 c 5.1661,-0.73421 8.32134,-2.68895 10.14005,-6.282 0.45921,-0.90722 0.4617,-0.99206 0.0563,-1.91648 -0.77364,-1.76404 -1.90231,-3.55547 -2.81269,-4.46433 -0.61653,-0.6155 -1.24998,-0.94808 -2.40299,-1.26164 -1.6021,-0.43569 -2.11906,-0.66313 -2.67304,-1.17602 -0.33525,-0.31038 -0.58838,-0.64556 -0.77316,-1.02379 -0.26325,-0.53885 -0.27475,-0.60477 -0.27512,-1.57834 -3.4e-4,-0.96289 0.0134,-1.04476 0.26296,-1.56633 0.48734,-1.01845 1.31604,-1.71646 2.35794,-1.98608 0.67144,-0.17375 1.15557,-0.16462 1.94258,0.0367 1.01191,0.2588 1.59127,0.61374 2.56004,1.56841 1.65499,1.6309 2.58635,3.49491 3.00359,6.01133 0.0926,0.5588 0.18559,1.0541 0.20652,1.10067 0.0968,0.21522 -0.0502,-3.58116 -0.17205,-4.445 -0.72375,-5.1309 -3.12178,-8.68088 -7.17921,-10.62793 -2.40149,-1.15241 -4.67655,-1.60211 -8.10509,-1.60211 -3.42472,0 -5.70409,0.44995 -8.0975,1.59846 -1.47279,0.70674 -2.31542,1.30774 -3.506,2.50063 -1.95513,1.95893 -3.22451,4.75244 -3.68508,8.10972 -0.14648,1.06771 -0.25033,4.55623 -0.12792,4.2969 0.044,-0.0931 0.0826,-0.27572 0.0859,-0.40574 0.009,-0.36151 0.2447,-1.45978 0.48508,-2.26126 0.61632,-2.05497 2.05879,-4.09619 3.6521,-5.16805 2.15687,-1.45099 4.71518,-0.92859 5.7549,1.17513 0.31237,0.63205 0.31621,0.65219 0.31621,1.66197 0,0.97928 -0.0114,1.04519 -0.27099,1.57073 -0.59147,1.1973 -1.3564,1.67702 -3.57645,2.24292 -0.94761,0.24155 -1.57556,0.58138 -2.21502,1.19872 -0.97117,0.93759 -2.28499,3.03464 -2.96146,4.72691 -0.26906,0.67308 -0.26989,0.67979 -0.13242,1.0683 0.0761,0.21503 0.31485,0.71007 0.53059,1.10009 1.97248,3.56598 5.48533,5.41615 11.29275,5.94774 0.93293,0.0854 5.40975,-0.021 6.31871,-0.1502 z m -5.00639,-7.64105 c -2.88414,-0.13683 -5.69741,-0.51724 -7.57766,-1.02467 -0.49368,-0.13323 -0.5531,-0.17246 -0.57717,-0.38101 -0.0365,-0.31594 0.12308,-0.36019 0.85844,-0.23809 2.58234,0.42881 4.45939,0.59191 7.55039,0.65608 3.41703,0.0709 6.16412,-0.0808 9.05934,-0.50057 0.6985,-0.10126 1.4224,-0.18572 1.60866,-0.1877 0.32054,-0.003 0.33867,0.01 0.33867,0.25004 0,0.30455 -0.10796,0.3485 -1.66275,0.67677 -2.66416,0.5625 -6.77265,0.88319 -9.59792,0.74915 z m 0.53427,-1.55276 c -1.71784,-0.21072 -3.00663,-0.98011 -3.52238,-2.10282 -0.16697,-0.36346 -0.2282,-0.65323 -0.25335,-1.19897 -0.15986,-3.46855 2.96339,-6.05812 6.02863,-4.9985 0.87291,0.30175 1.80304,1.03678 2.37056,1.87333 0.55748,0.82173 0.84862,1.97114 0.79718,3.14727 -0.043,0.98287 -0.29452,1.56095 -0.9264,2.12906 -0.97621,0.8777 -2.83651,1.35398 -4.49424,1.15063 z m -6.95398,-9.45105 c 0.14126,-0.2156 0.13969,-0.22759 -0.0498,-0.381 -0.10759,-0.0871 -0.22678,-0.1584 -0.26486,-0.1584 -0.11061,0 -0.33533,0.25532 -0.33533,0.381 0,0.15004 0.23344,0.381 0.38509,0.381 0.0654,0 0.18464,-0.10017 0.26486,-0.2226 z m 15.64233,0.0896 c 0.0732,-0.0732 0.13305,-0.18476 0.13305,-0.24795 0,-0.1433 -0.23091,-0.381 -0.37012,-0.381 -0.1594,0 -0.30721,0.18331 -0.30721,0.381 0,0.34833 0.30497,0.48726 0.54428,0.24795 z"
       id="path3741"
       inkscape:connector-curvature="0" />
    <g
       id="g3777"
       transform="matrix(0.39461764,0,0,0.39461764,2.2497947,57.904396)">
      <path
         id="path3771"
         d="m 93.84182,267.81344 c -5.81822,-0.44691 -9.82927,-1.36947 -15.52222,-3.57017 -14.835364,-5.73483 -26.558296,-17.94883 -31.75399,-33.08416 -0.63276,-1.84327 -1.266239,-3.90702 -1.407728,-4.58611 -0.375588,-1.80269 -0.709947,-2.08102 -2.118323,-1.76338 -0.734293,0.16561 -2.340244,0.0792 -4.053194,-0.21804 -6.788841,-1.17811 -11.757347,-7.11902 -12.652114,-15.1283 -0.430962,-3.85765 0.102251,-6.80202 1.929023,-10.65197 2.511479,-5.29297 6.525937,-8.00874 12.926465,-8.74472 l 2.028472,-0.23325 -0.0035,-3.76698 c -0.0049,-5.25301 0.859714,-10.62839 2.70542,-16.81975 2.665959,-8.94287 6.76639,-15.67377 13.865126,-22.75974 4.544666,-4.53649 7.723169,-6.89844 13.443845,-9.99012 4.535883,-2.45138 11.659938,-4.67418 17.261348,-5.38578 14.06385,-1.78666 27.30023,1.25414 38.612,8.87036 14.60186,9.83143 23.17686,25.63937 24.08667,44.40355 l 0.27216,5.61327 1.84583,0.0925 c 5.98667,0.30005 10.97422,4.00999 13.55953,10.08613 0.90793,2.13389 1.12882,3.19248 1.26878,6.08051 0.19884,4.10287 -0.24532,6.4885 -1.80544,9.69712 -1.31616,2.70689 -3.48646,5.20666 -5.82108,6.70478 -2.34156,1.50258 -6.87937,2.63671 -8.81219,2.20244 -1.74399,-0.39185 -1.95068,-0.20043 -2.47592,2.29311 -0.48163,2.28654 -2.75358,8.01357 -4.7784,12.04525 -2.99532,5.96403 -8.46256,12.37183 -15.00717,17.58894 -9.96376,7.94272 -24.02621,12.06662 -37.59338,11.02449 z"
         style="fill:#999999;stroke-width:0.35277778"
         inkscape:connector-curvature="0" />
      <path
         id="path3767"
         d="m 78.169426,245.82729 c -0.588374,-0.6263 -0.782006,-1.21425 -0.726126,-2.20486 0.258903,-4.58957 0.09661,-5.20481 -1.942426,-7.36346 -1.868396,-1.97799 -2.068432,-3.24339 -0.725086,-4.58673 1.564753,-1.56476 3.792876,-1.00068 6.021296,1.52435 l 1.066373,1.20831 1.226683,-0.72366 c 4.10564,-2.42202 10.6968,-3.776 16.90283,-3.47222 4.85483,0.23764 8.45545,1.11276 12.45291,3.02665 4.91308,2.35227 6.36775,4.55731 4.34253,6.58253 -1.2458,1.2458 -2.5052,1.09455 -5.8932,-0.70777 -7.27495,-3.87005 -17.40545,-4.0516 -24.64657,-0.44168 l -2.28216,1.13773 -0.25196,2.01707 c -0.28755,2.30199 -1.037042,3.96635 -2.023991,4.49455 -1.174362,0.62849 -2.664735,0.42075 -3.521103,-0.49081 z"
         style="fill:#4d4d4d;stroke-width:0.35277778"
         inkscape:connector-curvature="0" />
      <path
         id="path3763"
         d="m 63.622306,199.69214 c -0.933065,-0.31903 -2.05965,-2.10978 -2.05965,-3.2739 0,-0.32515 0.464036,-1.05522 1.031197,-1.62238 l 1.031194,-1.0312 h 8.516998 c 8.637993,0 9.516727,0.11567 10.487864,1.38054 0.596591,0.77705 0.556581,2.54677 -0.07807,3.45286 -0.291644,0.41638 -1.045707,0.92058 -1.675694,1.12043 -1.406645,0.44625 -15.936528,0.42406 -17.253839,-0.0263 z"
         style="fill:#4d4d4d;stroke-width:0.35277778"
         inkscape:connector-curvature="0" />
      <path
         id="path3759"
         d="m 116.45912,199.78724 c -3.02754,-0.43012 -4.04291,-2.95541 -2.00693,-4.99138 l 1.03119,-1.0312 h 8.65052 c 8.5925,0 8.65704,0.006 9.6227,0.83623 1.33442,1.14782 1.34644,3.04207 0.0277,4.36083 l -0.94448,0.94449 -7.32816,0.063 c -4.03048,0.0346 -8.10412,-0.0472 -9.05252,-0.18197 z"
         style="fill:#4d4d4d;stroke-width:0.35277778"
         inkscape:connector-curvature="0" />
    </g>
    <path
       style="fill:#000000;stroke-width:0.35277778"
       d=""
       id="path3790"
       inkscape:connector-curvature="0" />
    <g
       id="g4723"
       transform="translate(-8.5526249)">
      <path
         id="path4271"
         d="m 124.30972,175.87069 c 1.75291,-0.31428 3.41001,-0.95511 5.10017,-1.97235 0.61788,-0.37187 1.66184,-1.09863 1.778,-1.23777 0.0466,-0.0558 0.29421,-0.25644 0.55033,-0.44592 0.61238,-0.45304 2.36235,-2.19085 3.0123,-2.99137 1.98993,-2.45091 3.70004,-5.9762 5.07178,-10.45519 l 0.36302,-1.18533 0.42024,-0.0527 c 0.97221,-0.12188 1.61972,-0.48157 2.41509,-1.3416 0.53134,-0.57452 1.2867,-1.7919 1.60273,-2.58306 0.54323,-1.3599 0.69226,-1.76124 0.88104,-2.37265 0.28165,-0.91217 0.59681,-2.68914 0.66072,-3.72534 0.0953,-1.54446 -0.1801,-2.86075 -0.71918,-3.43784 l -0.25314,-0.27099 0.29325,-0.55858 c 1.52418,-2.90321 2.92822,-8.54519 3.26923,-13.13694 0.20843,-2.80666 -0.31857,-6.92671 -1.3054,-10.20548 -1.4197,-4.71701 -2.14638,-6.45031 -3.67944,-8.77639 -0.99668,-1.51222 -2.00323,-2.63296 -3.32513,-3.70233 -0.96874,-0.78368 -1.60097,-1.14695 -2.71424,-1.55956 -0.8486,-0.31452 -1.18705,-0.41695 -2.67109,-0.80838 -0.47807,-0.1261 -0.91622,-0.2869 -0.97367,-0.35733 -0.25659,-0.31462 -2.00752,-1.6874 -2.81378,-2.20608 -2.78974,-1.79472 -5.23072,-2.680116 -8.68446,-3.150046 -0.95598,-0.13008 -4.00091,-0.44607 -6.30154,-0.65395 -0.65193,-0.0589 -1.98543,-0.10745 -2.96333,-0.10788 -2.49682,-10e-4 -3.46971,0.1848 -4.46194,0.85252 -0.2547,0.1714 -0.6666,0.34772 -0.98462,0.42147 -0.30071,0.0697 -0.79423,0.239006 -1.09671,0.376156 -0.57692,0.26159 -1.63375,1.06758 -1.8674,1.42418 -0.0753,0.11495 -0.25795,0.34531 -0.40585,0.5119 -0.83734,0.94318 -2.03188,2.65231 -2.79191,3.99463 -1.03498,1.82793 -1.97474,4.27703 -2.43372,6.3425 -0.17855,0.80351 -0.34217,1.23519 -0.93064,2.45533 -0.76921,1.59489 -1.22709,2.70565 -1.4479,3.51243 -0.0765,0.2794 -0.16918,0.56515 -0.20602,0.635 -0.0703,0.13329 -0.2313,0.7435 -0.5138,1.94733 -0.24677,1.05156 -0.49053,2.85627 -0.64613,4.78367 -0.19474,2.41213 -0.13239,6.58591 0.12575,8.41787 0.45211,3.20855 1.21635,5.81734 2.47624,8.45279 l 0.49623,1.038 -0.18289,0.52833 c -0.2546,0.73552 -0.31091,2.58608 -0.12234,4.02042 0.35629,2.71001 1.45098,5.64033 2.65023,7.09424 0.75161,0.91121 1.5153,1.37636 2.38995,1.45567 l 0.47973,0.0435 0.19705,0.77292 c 0.33292,1.30589 1.39735,4.43218 1.94953,5.72592 1.01115,2.36908 2.33007,4.6614 3.43799,5.97532 0.57406,0.6808 2.12334,2.20999 3.02735,2.98809 0.93757,0.80699 2.25352,1.66304 3.48649,2.26803 1.58543,0.77792 2.98681,1.19671 4.64413,1.38787 0.84607,0.0976 2.83321,0.0275 3.7177,-0.13104 z"
         style="fill:#000000;stroke-width:0.08466666"
         inkscape:connector-curvature="0" />
      <path
         id="path4267"
         d="m 120.98555,175.43696 c -0.77798,-0.0985 -2.14944,-0.40512 -2.83633,-0.63411 -1.50434,-0.50149 -3.687,-1.71702 -4.91067,-2.73474 -0.23283,-0.19365 -0.51858,-0.41525 -0.635,-0.49245 -0.30212,-0.20035 -1.47064,-1.35323 -2.11503,-2.08674 -1.64928,-1.87737 -3.01219,-4.2204 -4.21697,-7.24953 -1.51393,-3.80643 -2.46557,-7.61802 -3.35772,-13.44866 -1.64059,-10.722 -1.6732,-13.7967 -0.17885,-16.862 1.41517,-2.90286 4.7185,-5.06004 9.06424,-5.91922 2.56031,-0.50619 4.83511,-0.63252 11.47233,-0.63712 7.10726,-0.005 9.49448,0.20947 12.20097,1.09576 3.59543,1.17739 6.11796,3.52598 6.92873,6.45095 0.85896,3.09881 0.64301,6.34111 -1.09663,16.46473 -1.67162,9.72781 -4.08784,16.00469 -7.75165,20.13734 -0.75856,0.85562 -2.21761,2.20291 -2.91542,2.6921 -2.53344,1.77601 -4.24014,2.57794 -6.43466,3.02344 -0.85672,0.17391 -2.57882,0.2811 -3.21734,0.20025 z"
         style="fill:#333333;stroke-width:0.08466666"
         inkscape:connector-curvature="0" />
      <path
         id="path4265"
         d="m 125.36655,174.18929 c 2.71629,-0.69121 4.92537,-2.00155 7.33133,-4.34864 1.1415,-1.11357 1.74967,-1.83809 1.74967,-2.0844 0,-0.15447 -0.32801,-0.74975 -1.05377,-1.91236 -0.0415,-0.0664 0.29047,0.0764 0.73768,0.3175 0.4472,0.24109 0.9072,0.43834 1.02222,0.43834 0.17135,0 0.2788,-0.11888 0.59507,-0.65834 0.82943,-1.41478 1.69844,-3.42147 2.42928,-5.60959 0.89933,-2.69258 1.57772,-5.68022 2.19102,-9.64941 0.8485,-5.49126 1.09008,-7.50676 1.16492,-9.71878 0.0288,-0.85165 0.0845,-1.56827 0.12365,-1.5925 0.0946,-0.0585 0.0917,-0.51942 -0.004,-0.57834 -0.0412,-0.0255 -0.10059,-0.22774 -0.13199,-0.4495 -0.34999,-2.4718 -0.6068,-3.28873 -1.42252,-4.5252 -0.35714,-0.54136 -0.47577,-0.6613 -0.65239,-0.65959 -0.11873,0.001 -1.13027,0.50936 -2.24787,1.12936 -1.1176,0.61999 -2.04439,1.11784 -2.05954,1.10631 -0.0151,-0.0115 0.47002,-0.83405 1.07815,-1.82785 1.39398,-2.27804 1.38568,-2.21653 0.36756,-2.72692 -1.96578,-0.98545 -4.36863,-1.4914 -7.72584,-1.62678 -1.60058,-0.0645 -10.27279,0.0933 -12.36133,0.22501 -3.37485,0.21281 -6.04251,0.81617 -8.10683,1.83357 -0.69896,0.34448 -0.78317,0.41055 -0.78317,0.61448 0,0.14427 0.3831,0.84973 1.03935,1.91392 l 1.03936,1.68544 -1.94952,-1.08221 c -1.29827,-0.72068 -2.01922,-1.07428 -2.15816,-1.05848 -0.35682,0.0406 -1.20892,1.15206 -1.7833,2.32615 -0.6917,1.41388 -0.80451,2.11224 -0.79061,4.89425 0.0111,2.21915 0.15294,3.57836 0.75552,7.239 0.92183,5.6001 1.42819,7.9851 2.33681,11.00666 0.75891,2.52371 2.04254,5.52942 3.16409,7.40893 0.40694,0.68197 0.51254,0.80374 0.69698,0.80374 0.1973,0 0.61701,-0.20553 1.96166,-0.9606 0.25291,-0.14202 0.42722,-0.20306 0.38736,-0.13564 -0.0399,0.0674 -0.37062,0.60486 -0.73501,1.19432 -0.36441,0.5895 -0.66253,1.16698 -0.66253,1.2834 0,0.23199 1.14373,1.45853 2.07311,2.22322 0.27873,0.22933 0.60258,0.50541 0.71967,0.6135 0.41623,0.38427 2.08903,1.44777 2.95649,1.87962 1.02582,0.5107 2.53955,1.02644 3.56406,1.21431 0.54557,0.10005 1.14981,0.12506 2.49767,0.10339 1.58048,-0.0254 1.87435,-0.0531 2.64533,-0.24929 z"
         style="fill:#000000;stroke-width:0.08466666"
         inkscape:connector-curvature="0" />
      <path
         id="path4263"
         d="m 120.90089,169.35421 c -1.67206,-0.27834 -3.41891,-0.98083 -4.42641,-1.78009 -0.59965,-0.4757 -1.17466,-1.24039 -1.41872,-1.8867 -0.1426,-0.37763 -0.17383,-0.6033 -0.1414,-1.02167 0.073,-0.94208 0.064,-0.94752 1.24773,0.74864 1.45573,2.08582 3.0133,3.14524 5.17838,3.5222 2.28812,0.39837 4.99553,-0.54611 6.49023,-2.26411 0.51708,-0.59434 2.18728,-2.74429 2.23305,-2.87449 0.0473,-0.13459 0.21379,0.38438 0.28765,0.89674 0.0596,0.41326 -0.2081,1.26578 -0.55635,1.77194 -0.89609,1.30243 -2.45179,2.21276 -4.66083,2.72735 -1.1373,0.26492 -3.14725,0.34098 -4.23333,0.16019 z"
         style="fill:#4d4d4d;stroke-width:0.08466666"
         inkscape:connector-curvature="0" />
      <path
         id="path4253"
         d="m 121.4059,168.30286 c -1.91077,-0.41628 -3.31363,-1.38524 -4.55353,-3.14512 -0.24031,-0.34109 -0.42783,-0.6282 -0.41671,-0.63804 0.0111,-0.01 0.43933,0.0708 0.95156,0.17916 1.10921,0.23465 2.56726,0.42944 4.03013,0.53839 1.6803,0.12514 4.84742,-0.0913 6.54603,-0.44736 l 0.55375,-0.11607 -0.1874,0.26443 c -0.90858,1.28207 -1.8964,2.19346 -2.9555,2.72682 -1.33627,0.67293 -2.75813,0.90145 -3.96833,0.63779 z"
         style="fill:#4d4d4d;stroke-width:0.08466666"
         inkscape:connector-curvature="0" />
      <path
         id="path4233"
         d="m 121.45122,164.43218 c -2.66872,-0.27497 -5.24855,-0.77464 -5.41839,-1.04944 -0.0666,-0.1078 0.65946,-0.46116 1.21807,-0.59281 1.03791,-0.2446 2.59182,0.10741 4.13132,0.93587 0.44547,0.23972 0.88783,0.41849 1.03554,0.41849 0.14183,0 0.59047,-0.15581 0.99697,-0.34624 2.30489,-1.07977 3.97808,-1.20119 5.31121,-0.38542 l 0.33205,0.20319 -0.45905,0.13004 c -1.43985,0.40791 -3.26243,0.64354 -5.32739,0.68877 -0.81491,0.0179 -1.63406,0.0168 -1.82033,-0.002 z"
         style="fill:#4d4d4d;stroke-width:0.08466666"
         inkscape:connector-curvature="0" />
      <path
         id="path4219"
         d="m 121.63754,163.0787 c -0.40976,-0.20885 -1.09556,-0.50093 -1.524,-0.64907 -0.73512,-0.25417 -0.84812,-0.26939 -2.00665,-0.27037 -0.93815,-7.6e-4 -1.31752,0.0322 -1.60867,0.13989 l -0.381,0.14093 0.381,-0.33522 c 0.84979,-0.74766 2.85146,-1.53851 4.48733,-1.77291 0.91345,-0.13088 2.56733,-0.1097 3.53001,0.0452 0.98945,0.15922 2.36805,0.60592 3.16918,1.02691 0.71438,0.37539 1.60257,1.11883 2.00941,1.68193 l 0.30586,0.42333 -0.33149,-0.28598 c -0.41992,-0.36226 -1.2112,-0.73836 -1.81946,-0.86477 -0.28234,-0.0587 -0.87837,-0.0816 -1.48717,-0.0571 -1.10947,0.0446 -1.92401,0.26355 -3.23674,0.87007 -0.35169,0.16249 -0.66265,0.29351 -0.69102,0.29115 -0.0284,-0.002 -0.38683,-0.17516 -0.79659,-0.38401 z"
         style="fill:#4d4d4d;stroke-width:0.08466666"
         inkscape:connector-curvature="0" />
      <path
         id="path4193"
         d="m 120.94322,159.01133 c -0.90891,-0.17899 -1.15523,-0.2488 -1.51047,-0.4281 -0.92591,-0.46734 -1.53574,-1.33192 -1.7959,-2.54611 -0.17397,-0.81199 -0.26151,-3.59054 -0.13034,-4.13731 0.11326,-0.47212 0.40698,-1.01573 0.49911,-0.92375 0.0324,0.0324 0.0808,0.84628 0.10744,1.80871 0.043,1.55018 0.0692,1.79396 0.22976,2.13614 0.21679,0.46199 0.34553,0.58351 0.92661,0.87469 0.63765,0.31952 1.36255,0.47156 2.52046,0.52865 1.63335,0.0805 3.0618,-0.2064 3.71721,-0.74664 0.15909,-0.13113 0.3754,-0.41639 0.4807,-0.63391 0.21306,-0.44013 0.24096,-0.99248 0.16242,-3.21664 -0.0233,-0.6594 -0.0149,-1.22654 0.0185,-1.2603 0.0963,-0.0971 0.47293,0.19198 0.61958,0.47557 0.2206,0.42659 0.37995,1.575 0.38686,2.78798 0.0146,2.57171 -0.64153,4.25349 -1.89681,4.86149 -0.79346,0.38432 -1.33376,0.47335 -2.80778,0.46269 -0.74693,-0.005 -1.43425,-0.0248 -1.52738,-0.0432 z"
         style="fill:#4d4d4d;stroke-width:0.08466666"
         inkscape:connector-curvature="0" />
      <path
         id="path4191"
         d="m 125.51522,157.88176 c 0.50833,-0.2444 0.63781,-0.37784 0.69227,-0.71344 0.0467,-0.28792 0.0364,-0.30534 -0.18052,-0.30534 -0.12654,0 -0.4017,0.12326 -0.61148,0.27391 -0.33142,0.23801 -0.46364,0.27807 -1.00868,0.30559 -0.61863,0.0312 -0.62726,0.0349 -0.62726,0.26231 0,0.12685 0.0254,0.25603 0.0564,0.28708 0.031,0.031 0.34537,0.0556 0.6985,0.0546 0.45661,-0.001 0.73987,-0.0489 0.98072,-0.16469 z"
         style="fill:#4d4d4d;stroke-width:0.08466666"
         inkscape:connector-curvature="0" />
      <path
         id="path4187"
         d="m 120.85855,157.66686 v -0.254 l -0.60622,-0.0472 c -0.46524,-0.0362 -0.68676,-0.10051 -0.9525,-0.27637 -0.19045,-0.12603 -0.34628,-0.26671 -0.34628,-0.31262 0,-0.0459 -0.1143,-0.0835 -0.254,-0.0835 -0.23258,0 -0.254,0.0243 -0.254,0.2888 0,0.22182 0.0638,0.34261 0.27517,0.52073 0.44623,0.37609 0.72261,0.45891 1.4605,0.43765 l 0.67733,-0.0195 z"
         style="fill:#4d4d4d;stroke-width:0.08466666"
         inkscape:connector-curvature="0" />
      <path
         id="path4163"
         d="m 110.40222,149.712 c -0.0699,-0.017 -0.41275,-0.0771 -0.762,-0.13362 -2.37739,-0.38454 -4.41217,-1.70976 -5.25476,-3.42235 -0.43933,-0.89296 -0.55314,-1.51348 -0.41766,-2.27734 0.58761,-3.31315 5.07732,-5.51012 9.25927,-4.53088 1.54168,0.36101 3.01884,1.16164 3.90081,2.11427 1.78622,1.92933 1.74186,4.12155 -0.12164,6.01143 -1.32655,1.34532 -3.30834,2.14982 -5.49954,2.2325 -0.53761,0.0203 -1.03463,0.023 -1.10448,0.006 z"
         style="fill:#4d4d4d;stroke-width:0.08466666"
         inkscape:connector-curvature="0" />
      <path
         id="path4161"
         d="m 112.90545,147.6277 c 0.93933,-0.13065 2.00309,-0.45599 2.82994,-0.86551 0.39536,-0.19581 0.89066,-0.39439 1.10067,-0.44129 0.34862,-0.0779 0.38183,-0.1073 0.38183,-0.33866 0,-0.24461 -0.0132,-0.25324 -0.381,-0.24851 -0.20955,0.003 -0.9906,0.0962 -1.73567,0.20781 -1.79514,0.26888 -4.67839,0.29719 -5.79337,0.0569 -1.76454,-0.38032 -3.01079,-0.96729 -4.214,-1.98475 -0.52851,-0.44692 -0.81532,-0.4665 -0.85525,-0.0584 -0.0214,0.21896 0.0368,0.31015 0.381,0.59696 0.22346,0.18619 0.59679,0.46974 0.82962,0.63012 0.23284,0.16037 0.67741,0.52631 0.98795,0.8132 1.26207,1.16596 2.77377,1.69852 4.86909,1.71534 0.52051,0.004 1.24014,-0.0333 1.59919,-0.0832 z"
         style="fill:#000000;fill-opacity:1;stroke-width:0.08466666"
         inkscape:connector-curvature="0" />
      <path
         id="path4157"
         d="m 117.59845,145.19967 c -6.7e-4,-0.47389 -0.45696,-1.14618 -1.14265,-1.68347 -0.53391,-0.41837 -1.32374,-0.81213 -2.92091,-1.45621 -0.81492,-0.32863 -2.2364,-0.9044 -3.15886,-1.2795 -0.92246,-0.37509 -1.78923,-0.68199 -1.92617,-0.68199 -0.22473,0 -0.24884,0.0268 -0.24762,0.27517 l 10e-4,0.27516 1.67081,0.66692 c 3.13678,1.25207 4.54923,1.84005 5.17192,2.15296 0.77187,0.38788 1.56241,1.09135 1.83833,1.63586 0.17977,0.35475 0.24449,0.4126 0.46165,0.4126 0.2355,0 0.25255,-0.0215 0.25214,-0.3175 z"
         style="fill:#1a1a1a;stroke-width:0.08466666"
         inkscape:connector-curvature="0" />
      <path
         id="path4151"
         d="m 131.29419,149.61885 c -1.95633,-0.30455 -3.70313,-1.17228 -4.79482,-2.38186 -0.61592,-0.68243 -0.9863,-1.3897 -1.15556,-2.20666 -0.11313,-0.54601 -0.11313,-0.68165 0,-1.22766 0.2546,-1.22885 1.03898,-2.32871 2.26094,-3.17031 0.7385,-0.50863 1.02052,-0.65543 2.18768,-1.13883 l 0.88746,-0.36756 1.60866,0.002 c 1.22951,0.002 1.7783,0.0387 2.32834,0.15666 2.53998,0.54456 4.59146,2.04942 5.28495,3.87678 0.21413,0.56424 0.30429,1.25472 0.16383,1.25472 -0.0627,0 -0.3506,0.19071 -0.63987,0.42381 -0.28927,0.23309 -0.85143,0.59109 -1.24926,0.79555 -2.33668,1.20093 -4.89826,1.36775 -9.12389,0.5942 -0.61559,-0.11269 -1.25618,-0.20489 -1.42353,-0.20489 -0.29184,0 -0.30321,0.0112 -0.27776,0.27296 0.0241,0.24851 0.0597,0.27948 0.39642,0.34564 0.20344,0.04 0.54759,0.18201 0.76478,0.31565 0.59752,0.36766 1.55876,0.75352 2.45938,0.98725 1.193,0.30961 3.10856,0.36441 4.27995,0.12244 1.05809,-0.21857 2.17569,-0.75485 2.86292,-1.37379 0.3979,-0.35836 1.78744,-1.34749 1.89296,-1.34749 0.0681,0 -0.28538,0.76705 -0.53769,1.16662 -1.01105,1.60118 -3.01573,2.74746 -5.44551,3.11375 -0.97289,0.14666 -1.74517,0.14401 -2.73038,-0.009 z"
         style="fill:#4d4d4d;stroke-width:0.08466666"
         inkscape:connector-curvature="0" />
      <path
         id="path4149"
         d="m 127.75332,145.38321 c 0.28887,-0.54452 0.93534,-1.07842 1.8259,-1.50796 0.4191,-0.20214 2.16218,-0.87417 3.8735,-1.49339 l 3.1115,-1.12585 v -0.28242 c 0,-0.24345 -0.0287,-0.28242 -0.20791,-0.28242 -0.30964,0 -6.67376,2.33489 -7.43032,2.72606 -1.11178,0.57484 -1.9291,1.45362 -1.9291,2.07418 0,0.25921 0.0202,0.27976 0.27531,0.27976 0.24064,0 0.30123,-0.0489 0.48112,-0.38796 z"
         style="fill:#1a1a1a;stroke-width:0.08466666"
         inkscape:connector-curvature="0" />
      <path
         id="path4057"
         d="m 140.37423,156.93073 c 0,-0.0164 0.0967,-0.40997 0.2148,-0.87456 0.56585,-2.22523 1.12148,-5.13509 1.85881,-9.73473 0.16423,-1.02447 0.31677,-1.94341 0.33899,-2.0421 0.0323,-0.14328 0.12612,-0.19081 0.46577,-0.23587 0.86021,-0.11411 1.63954,0.2778 1.98394,0.9977 0.26499,0.55389 0.41762,1.59673 0.34699,2.37088 -0.36849,4.03911 -2.23858,8.15583 -4.16685,9.17268 -0.43221,0.22791 -1.04245,0.43046 -1.04245,0.346 z"
         style="fill:#4d4d4d;stroke-width:0.08466666"
         inkscape:connector-curvature="0" />
      <path
         id="path4049"
         d="m 103.21737,156.17263 c -1.48702,-0.42792 -2.90145,-2.56369 -3.77654,-5.70252 -0.4709,-1.68904 -0.59602,-2.54796 -0.59204,-4.064 0.003,-1.21349 0.0241,-1.40642 0.20022,-1.85122 0.26641,-0.67267 0.70876,-1.10259 1.27401,-1.23818 0.3741,-0.0898 1.05931,-0.0819 1.14364,0.0131 0.0138,0.0156 0.20185,1.26654 0.41788,2.77995 0.5374,3.76493 1.0919,7.04723 1.47681,8.74184 0.19311,0.85018 0.28576,1.41511 0.23133,1.41053 -0.0499,-0.004 -0.21882,-0.0445 -0.37531,-0.0895 z"
         style="fill:#4d4d4d;stroke-width:0.08466666"
         inkscape:connector-curvature="0" />
      <path
         id="path4011"
         d="m 143.4883,142.6954 c 0.38889,-1.035 0.82415,-2.66061 1.00497,-3.75336 0.13418,-0.81092 0.19584,-0.9871 0.52864,-1.51065 1.94785,-3.06422 2.55179,-6.84632 1.73725,-10.87935 -0.20046,-0.99251 -0.99916,-3.5681 -1.25775,-4.05589 -0.15126,-0.28531 -0.38585,-0.82456 -0.38585,-0.88694 0,-0.10955 -1.23928,-2.62638 -1.79772,-3.65098 -3.03853,-5.57488 -5.07888,-8.72895 -7.31972,-11.31522 l -0.78071,-0.90106 0.94858,0.29559 c 1.84602,0.57525 2.56827,0.92908 3.65791,1.792 2.99737,2.37374 4.83923,5.44235 6.72567,11.20521 1.1472,3.50456 1.8376,8.20717 1.61323,10.98831 -0.34252,4.24559 -1.6401,9.50177 -3.02842,12.26747 l -0.56915,1.1338 -0.67887,0.009 -0.67886,0.009 z"
         style="fill:#666666;fill-opacity:1;stroke-width:0.08466666"
         inkscape:connector-curvature="0" />
      <path
         sodipodi:nodetypes="csccccccccccsccccsccccscc"
         id="path4007"
         d="m 98.57107,141.98222 c -1.91956,-4.04881 -2.83572,-9.0878 -2.56531,-14.10952 0.18395,-3.4161 0.5464,-6.12352 1.02695,-7.67097 0.50926,-1.63994 0.72911,-2.26028 1.15522,-3.25967 1.86706,-4.37901 4.02033,-7.17717 7.13432,-9.27101 0.70227,-0.47221 2.36347,-1.34867 3.04798,-1.60814 0.16299,-0.0618 0.33253,-0.14432 0.37677,-0.18342 0.16082,-0.14216 0.34722,-0.0636 0.54779,0.23089 0.40722,0.5979 1.41353,1.44226 2.14253,1.79773 0.93199,0.45444 1.72637,0.62391 3.11358,0.66423 0.62865,0.0183 1.35475,0.0439 1.61357,0.057 0.40224,-0.0219 0.72304,0.007 1.33237,0.0483 0.0449,0.0285 -0.26063,0.4137 -0.67888,0.85609 -2.5957,2.74552 -3.86622,4.47105 -5.08961,6.91238 l -0.30304,0.60472 -1.12536,0.55164 c -3.2057,1.57142 -6.03206,4.00707 -7.73212,6.66326 -1.28826,2.01278 -2.23015,4.76613 -2.57775,7.53533 -0.27229,2.16925 -0.18512,5.16799 0.21307,7.32988 0.17383,0.94372 0.77655,3.17754 0.91996,3.4096 0.0251,0.0406 -0.24018,0.0954 -0.58946,0.12181 -0.38155,0.0289 -0.77993,0.11816 -0.99796,0.2237 -0.19959,0.0966 -0.38312,0.17567 -0.40784,0.17567 -0.0247,0 -0.27526,-0.48577 -0.55675,-1.0795 z"
         style="fill:#666666;stroke-width:0.08466666"
         inkscape:connector-curvature="0" />
      <path
         sodipodi:nodetypes="ccccscccccccscscccsccccscc"
         inkscape:connector-curvature="0"
         id="path4698"
         transform="scale(0.26458333)"
         d="m 427.28711,374.6875 c -8.61052,0.0912 -13.91712,1.82735 -16.08399,5.24414 -0.71031,2.14321 -1.09596,4.36836 -1.16211,7.13869 0.0631,1.75951 0.43298,3.93774 1.65429,6.44727 0.6011,1.23507 1.09375,2.33167 1.09375,2.4375 0,0.48143 3.34324,4.63004 5.01953,6.22851 2.38152,2.27097 4.128,3.3628 7.12891,4.45508 3.66077,1.3324 6.23645,1.59778 18.41016,1.9043 11.38038,0.2866 14.6192,0.59428 20.28906,1.92773 14.33344,3.371 27.97594,11.1409 39.60547,22.55469 4.48928,4.40602 9.89912,10.86579 13.13867,15.68945 0.83928,1.24963 2.12399,2.54535 3.65039,3.67774 11.9938,8.89757 20.17683,20.13831 24.11328,33.125 2.29445,7.5696 3.62993,18.23668 3.27344,26.14844 -0.0948,2.06697 -0.10309,3.75976 -0.0215,3.75976 0.27455,0 2.90487,-5.93517 3.76758,-8.5 2.97574,-8.847 3.38514,-17.41831 1.30274,-27.28125 -1.16054,-5.49649 -3.75224,-13.3583 -6.13868,-18.61914 -3.9126,-8.6253 -11.73726,-22.95284 -19.36132,-35.45117 -5.89565,-9.6649 -12.01571,-17.83485 -17.97852,-23.99805 -1.23878,-1.28043 -2.33211,-2.43286 -2.42773,-2.5625 -0.0957,-0.12979 -1.75692,-1.61362 -3.69336,-3.29687 -10.38029,-9.02321 -22.73711,-14.93334 -36.32031,-17.3711 -5.70437,-1.02374 -22.19965,-2.76517 -32.76758,-3.45898 -2.3408,-0.15368 -4.50515,-0.22027 -6.49219,-0.19922 z"
         style="fill:#666666;fill-opacity:1;stroke-width:0.31999999" />
      <path
         sodipodi:nodetypes="cccsccssccccccccccccc"
         inkscape:connector-curvature="0"
         id="path3983"
         transform="scale(0.26458333)"
         d="m 407.64648,380.02344 c -0.29703,-0.007 -0.87606,0.20196 -2,0.67773 -2.66343,1.12743 -5.25669,3.28635 -6.96289,5.79883 -0.7042,1.03691 -1.43407,1.88477 -1.62304,1.88477 -0.63459,0 -2.99974,2.69754 -5.05274,5.76171 -1.12025,1.67203 -2.15892,3.08791 -2.30859,3.14649 -0.14967,0.0585 -0.27149,0.2305 -0.27149,0.38281 0,0.15251 -0.41325,0.89749 -0.91796,1.6543 -2.73831,4.10608 -6.99886,13.39464 -8.96289,19.53906 -1.15034,3.59868 -1.19523,3.86651 -0.46094,2.78711 1.55886,-2.29153 6.1115,-7.51845 8.61328,-9.88867 5.07148,-4.80484 11.74446,-9.30759 17.36133,-11.71485 1.52145,-0.65208 3.05437,-1.30818 3.40625,-1.45898 0.35198,-0.15077 1.03706,-0.41838 1.52148,-0.59375 l 0.88086,-0.31836 -0.92969,-2.00781 c -1.55459,-3.36049 -2.7857,-9.15179 -2.74609,-10.44141 -0.20105,-1.41977 0.0437,-2.3734 0.34188,-3.72266 0.27866,-0.42513 0.45702,-0.98815 0.39843,-1.25196 -0.0329,-0.14841 -0.10888,-0.23021 -0.28711,-0.23437 z"
         style="fill:#666666;fill-opacity:1;stroke-width:0.31999999" />
      <path
         id="path3911"
         d="m 122.35282,118.3958 c -0.52549,-1.07067 -1.56872,-1.89996 -2.87997,-2.28935 -1.59124,-0.47255 -4.11872,-0.32652 -6.36125,0.36753 -0.30268,0.0937 -0.58221,0.17061 -0.62118,0.17097 -0.11603,0.001 0.58333,-1.23654 1.33929,-2.37002 0.95479,-1.4316 1.89651,-2.57136 3.49177,-4.22608 l 1.3398,-1.38974 1.05633,0.10465 c 2.6387,0.26143 4.99666,0.97289 7.34984,2.21766 2.87984,1.52336 5.217,3.4662 7.6085,6.32481 0.80504,0.96228 0.80043,0.98142 -0.12418,0.51575 -1.58248,-0.79699 -3.29341,-1.38237 -4.79309,-1.63992 -0.9632,-0.16542 -2.9477,-0.16752 -3.71971,-0.004 -1.36355,0.28892 -2.62276,1.20235 -3.15385,2.28781 l -0.24855,0.508 -0.28375,-0.57814 z"
         style="fill:#666666;fill-opacity:1;stroke-width:0.08466666"
         inkscape:connector-curvature="0" />
      <path
         id="path3803"
         d="m 112.22707,98.788194 c -0.0273,-0.0441 -0.0135,-0.1025 0.0306,-0.12976 0.0441,-0.0273 0.1025,-0.0135 0.12976,0.0306 0.0273,0.0441 0.0135,0.1025 -0.0306,0.12976 -0.0441,0.0273 -0.10251,0.0135 -0.12977,-0.0306 z"
         style="fill:#000000;stroke-width:0.08466666"
         inkscape:connector-curvature="0" />
    </g>
  </g>
</svg>
